<svg width="45" height="44" viewBox="0 0 45 44" fill="none" xmlns="http://www.w3.org/2000/svg">
<path d="M18.5 14H17.7C16.58 14 16.02 14 15.592 14.218C15.2157 14.4097 14.9097 14.7157 14.718 15.092C14.5 15.52 14.5 16.08 14.5 17.2V18M18.5 14H26.5M18.5 14V12M14.5 18V26.8C14.5 27.92 14.5 28.48 14.718 28.908C14.9097 29.2843 15.2157 29.5903 15.592 29.782C16.019 30 16.579 30 17.697 30H27.303C28.421 30 28.98 30 29.407 29.782C29.784 29.59 30.09 29.284 30.282 28.908C30.5 28.48 30.5 27.922 30.5 26.804V18M14.5 18H30.5M26.5 14H27.3C28.42 14 28.98 14 29.407 14.218C29.784 14.41 30.09 14.715 30.282 15.092C30.5 15.519 30.5 16.079 30.5 17.197V18M26.5 14V12M26.5 26H26.502V26.002H26.5V26ZM22.5 26H22.502V26.002H22.5V26ZM18.5 26H18.502V26.002H18.5V26ZM26.502 22V22.002H26.5V22H26.502ZM22.5 22H22.502V22.002H22.5V22ZM18.5 22H18.502V22.002H18.5V22Z" stroke="#757575" stroke-width="2" stroke-linecap="round" stroke-linejoin="round"/>
</svg>
