<svg width="44" height="44" viewBox="0 0 44 44" fill="none" xmlns="http://www.w3.org/2000/svg">
<path d="M12 30H14M14 30H20M14 30V21.452C14 20.918 14 20.651 14.065 20.402C14.1226 20.1819 14.2173 19.9732 14.345 19.785C14.49 19.572 14.691 19.395 15.093 19.044L19.894 14.842C20.64 14.19 21.013 13.864 21.432 13.74C21.802 13.63 22.197 13.63 22.567 13.74C22.987 13.864 23.361 14.19 24.107 14.844L28.907 19.044C29.309 19.396 29.51 19.572 29.655 19.784C29.783 19.9753 29.8763 20.1813 29.935 20.402C30 20.651 30 20.918 30 21.452V30M20 30H24M20 30V26C20 25.4695 20.2107 24.9608 20.5858 24.5858C20.9609 24.2107 21.4696 24 22 24C22.5304 24 23.0391 24.2107 23.4142 24.5858C23.7893 24.9608 24 25.4695 24 26V30M30 30H24M30 30H32" stroke="#FF5004" stroke-width="2" stroke-linecap="round" stroke-linejoin="round"/>
</svg>
