<svg width="44" height="44" viewBox="0 0 44 44" fill="none" xmlns="http://www.w3.org/2000/svg">
<path d="M30.3501 18.923L29.9841 18.719L29.8711 18.655C29.5985 18.4914 29.3688 18.2652 29.2011 17.995C29.1831 17.968 29.1671 17.939 29.1351 17.883C28.9195 17.537 28.8148 17.1333 28.8351 16.726L28.8411 16.301C28.8531 15.621 28.8591 15.279 28.7631 14.973C28.6781 14.7008 28.536 14.4498 28.3461 14.237C28.1321 13.997 27.8351 13.825 27.2401 13.483L26.7461 13.198C26.1541 12.857 25.8571 12.686 25.5421 12.621C25.2638 12.5635 24.9764 12.5658 24.6991 12.628C24.3861 12.698 24.0931 12.874 23.5081 13.224L23.5051 13.226L23.1511 13.437C23.0951 13.471 23.0661 13.487 23.0381 13.503C22.7601 13.658 22.4501 13.743 22.1311 13.753C22.0991 13.755 22.0661 13.755 22.0011 13.755L21.8711 13.754C21.552 13.7439 21.24 13.6575 20.9611 13.502C20.9331 13.487 20.9061 13.47 20.8501 13.436L20.4931 13.222C19.9041 12.868 19.6091 12.692 19.2941 12.621C19.0157 12.5587 18.7273 12.5567 18.4481 12.615C18.1321 12.681 17.8361 12.853 17.2431 13.197L17.2401 13.198L16.7521 13.481L16.7471 13.485C16.1591 13.825 15.8641 13.997 15.6521 14.236C15.4632 14.4484 15.3217 14.6987 15.2371 14.97C15.1421 15.277 15.1471 15.619 15.1591 16.303L15.1661 16.727C15.1661 16.792 15.1691 16.824 15.1681 16.855C15.1629 17.2184 15.0588 17.5734 14.8671 17.882C14.8341 17.938 14.8191 17.966 14.8021 17.992C14.6335 18.2642 14.402 18.4919 14.1271 18.656L14.0151 18.719L13.6541 18.919C13.0521 19.252 12.7511 19.419 12.5331 19.657C12.3393 19.8669 12.1926 20.1158 12.1031 20.387C12.0031 20.694 12.0031 21.037 12.0041 21.725L12.0061 22.288C12.0071 22.971 12.0091 23.312 12.1101 23.617C12.1993 23.8866 12.3448 24.1341 12.5371 24.3431C12.7551 24.5791 13.0531 24.745 13.6501 25.077L14.0081 25.276C14.0691 25.31 14.1001 25.326 14.1291 25.344C14.4425 25.5319 14.6984 25.802 14.8691 26.125L14.9361 26.2451C15.105 26.564 15.1845 26.9226 15.1661 27.2831L15.1591 27.6901C15.1471 28.3761 15.1421 28.7201 15.2381 29.0271C15.3231 29.2991 15.4651 29.5501 15.6551 29.7631C15.8691 30.0031 16.1671 30.174 16.7611 30.517L17.2551 30.802C17.8481 31.143 18.1441 31.314 18.4591 31.379C18.7374 31.4366 19.0248 31.4343 19.3021 31.372C19.6161 31.302 19.9091 31.126 20.4961 30.774L20.8501 30.562L20.9631 30.496C21.2411 30.342 21.5511 30.256 21.8701 30.246L22.0001 30.2451H22.1301C22.4481 30.2551 22.7601 30.342 23.0401 30.497L23.1321 30.552L23.5081 30.778C24.0981 31.132 24.3921 31.308 24.7071 31.378C24.9853 31.441 25.2737 31.4437 25.5531 31.386C25.8681 31.32 26.1661 31.147 26.7591 30.803L27.2541 30.5161C27.8421 30.1741 28.1371 30.003 28.3491 29.764C28.5391 29.551 28.6791 29.3011 28.7641 29.0301C28.8591 28.7251 28.8541 28.386 28.8421 27.712L28.8341 27.272V27.1451C28.8388 26.7815 28.9425 26.4261 29.1341 26.1171L29.1991 26.007C29.3677 25.7349 29.5992 25.5072 29.8741 25.3431L29.9841 25.282L29.9861 25.281L30.3471 25.081C30.9491 24.747 31.2501 24.5811 31.4691 24.3431C31.6631 24.1331 31.8091 23.883 31.8981 23.613C31.9981 23.308 31.9981 22.966 31.9961 22.286L31.9941 21.712C31.9931 21.029 31.9921 20.687 31.8911 20.382C31.8015 20.1128 31.6556 19.8656 31.4631 19.657C31.2461 19.421 30.9481 19.255 30.3521 18.924L30.3501 18.923Z" stroke="#757575" stroke-width="2" stroke-linecap="round" stroke-linejoin="round"/>
<path d="M18.0001 22C18.0001 23.0609 18.4215 24.0783 19.1717 24.8285C19.9218 25.5786 20.9392 26 22.0001 26C23.0609 26 24.0784 25.5786 24.8285 24.8285C25.5787 24.0783 26.0001 23.0609 26.0001 22C26.0001 20.9392 25.5787 19.9218 24.8285 19.1716C24.0784 18.4215 23.0609 18 22.0001 18C20.9392 18 19.9218 18.4215 19.1717 19.1716C18.4215 19.9218 18.0001 20.9392 18.0001 22Z" stroke="#757575" stroke-width="2" stroke-linecap="round" stroke-linejoin="round"/>
</svg>
